<svg id="Capa_1" enable-background="new 0 0 512 512" height="512" viewBox="0 0 512 512" width="512" xmlns="http://www.w3.org/2000/svg"><g><g><g><g><g fill="#453d81"><path d="m471 90h-30c-8.284 0-15-6.716-15-15s6.716-15 15-15h30c8.284 0 15 6.716 15 15s-6.716 15-15 15z"/><path d="m456 150h-15c-8.284 0-15-6.716-15-15s6.716-15 15-15h15c8.284 0 15 6.716 15 15s-6.716 15-15 15z"/><path d="m471 210h-30c-8.284 0-15-6.716-15-15s6.716-15 15-15h30c8.284 0 15 6.716 15 15s-6.716 15-15 15z"/><path d="m456 270h-15c-8.284 0-15-6.716-15-15s6.716-15 15-15h15c8.284 0 15 6.716 15 15s-6.716 15-15 15z"/><path d="m471 330h-30c-8.284 0-15-6.716-15-15s6.716-15 15-15h30c8.284 0 15 6.716 15 15s-6.716 15-15 15z"/></g><g><path d="m216 407c0 57.99 47.01 105 105 105s105-47.01 105-105c0-33.445-15.638-63.236-40-82.465v-259.535c0-35.898-29.101-65-65-65-35.898 0-65 29.101-65 65v259.536c-24.362 19.228-40 49.019-40 82.464z" fill="#e2dff4"/><path d="m426 407c0-33.445-15.638-63.236-40-82.465v-259.535c0-35.898-29.101-65-65-65v512c57.99 0 105-47.01 105-105z" fill="#bebcdd"/><path d="m321 482c-41.355 0-75-33.645-75-75 0-23.103 10.419-44.577 28.586-58.916l11.414-9.008v-274.076c0-19.299 15.701-35 35-35s35 15.701 35 35v274.076l11.414 9.008c18.167 14.339 28.586 35.813 28.586 58.916 0 41.355-33.645 75-75 75z" fill="#f9f9f9"/><path d="m321 482c41.355 0 75-33.645 75-75 0-23.103-10.419-44.577-28.586-58.916l-11.414-9.008v-274.076c0-19.299-15.701-35-35-35z" fill="#e2dff4"/><g><path d="m336 364.58v-169.58c0-8.284-6.716-15-15-15s-15 6.716-15 15v169.58c-17.459 6.192-30 22.865-30 42.42 0 24.813 20.187 45 45 45s45-20.187 45-45c0-19.555-12.541-36.228-30-42.42z" fill="#ff7d47"/><g><path d="m336 364.58v-169.58c0-8.284-6.716-15-15-15v272c24.813 0 45-20.187 45-45 0-19.555-12.541-36.228-30-42.42z" fill="#ff405c"/></g></g></g></g></g></g><g><path d="m96 255v-143.787l14.393 14.393c5.858 5.858 15.355 5.858 21.213 0 5.858-5.858 5.858-15.355 0-21.213l-40-40c-5.858-5.858-15.355-5.858-21.213 0l-40 40c-5.858 5.858-5.858 15.355 0 21.213 5.858 5.858 15.355 5.858 21.213 0l14.394-14.393v143.787c0 8.284 6.716 15 15 15s15-6.716 15-15z" fill="#ff7d47"/><path d="m191.607 324.393c-5.858-5.858-15.355-5.858-21.213 0l-14.394 14.394v-143.787c0-8.284-6.716-15-15-15s-15 6.716-15 15v143.787l-14.393-14.393c-5.858-5.858-15.355-5.858-21.213 0-5.858 5.858-5.858 15.355 0 21.213l40 40c5.858 5.858 15.355 5.858 21.213 0l40-40c5.857-5.858 5.857-15.356 0-21.214z" fill="#8bb9ff"/></g><path d="m131.606 104.394-40-40c-2.928-2.93-6.767-4.394-10.606-4.394v210c8.284 0 15-6.716 15-15v-143.787l14.393 14.393c5.858 5.858 15.355 5.858 21.213 0 5.858-5.857 5.858-15.355 0-21.212z" fill="#ff405c"/><path d="m191.606 345.606-40 40c-2.928 2.93-6.767 4.394-10.606 4.394v-210c8.284 0 15 6.716 15 15v143.787l14.393-14.393c5.858-5.858 15.355-5.858 21.213 0 5.858 5.857 5.858 15.355 0 21.212z" fill="#7d81e7"/></g></svg>