<svg id="Capa_1" enable-background="new 0 0 511.997 511.997" height="512" viewBox="0 0 511.997 511.997" width="512" xmlns="http://www.w3.org/2000/svg"><g><g><path d="m480.839 144.801-222.116 222.116c-11.095 11.095-24.636 18.272-38.877 21.524-47.857 10.932-92.044 34.104-126.756 68.816l-39.28 39.28c-5.303 5.303-12.261 7.962-19.219 7.962s-13.923-2.652-19.233-7.962c-10.621-10.621-10.614-27.839 0-38.452l39.28-39.28c34.712-34.712 57.884-78.899 68.816-126.756 3.253-14.241 10.43-27.782 21.524-38.877l222.116-222.116c31.41-31.41 82.336-31.41 113.745 0 31.41 31.409 31.41 82.335 0 113.745z" fill="#eaf6ff"/><path d="m26.354 503.219c-4.023-1.266-7.806-3.493-10.996-6.682-10.621-10.621-10.614-27.839 0-38.452l39.28-39.28c34.712-34.712 57.884-78.899 68.816-126.756 3.253-14.241 10.43-27.782 21.524-38.877l222.116-222.116c31.41-31.41 82.336-31.41 113.745 0 3.005 3.005 5.728 6.194 8.153 9.525-31.452-22.967-75.816-20.251-104.22 8.153l-222.116 222.116c-11.095 11.095-18.272 24.636-21.524 38.877-10.932 47.857-34.104 92.044-68.816 126.756l-39.28 39.28c-7.432 7.431-9.666 18.094-6.682 27.456z" fill="#d8ecfe"/><path d="m480.839 144.801-11.922 11.922-113.745-113.746 11.922-11.922c31.41-31.41 82.336-31.41 113.745 0 31.41 31.41 31.41 82.336 0 113.746z" fill="#fe99a0"/><path d="m194.555 207.995h57.83v160.86h-57.83z" fill="#fe99a0" transform="matrix(.707 -.707 .707 .707 -138.494 242.495)"/><path d="m488.992 40.58c-31.452-22.967-75.816-20.251-104.22 8.153l-11.922 11.922-17.678-17.678 11.922-11.922c31.41-31.41 82.336-31.41 113.745 0 3.006 3.006 5.728 6.195 8.153 9.525z" fill="#fd8087"/><path d="m146.521 227.891h57.83v25h-57.83z" fill="#fd8087" transform="matrix(.707 -.707 .707 .707 -118.598 194.461)"/><path d="m71.637 478.711-17.827 17.826c-5.303 5.303-12.261 7.962-19.219 7.962s-13.923-2.652-19.233-7.962c-10.621-10.621-10.614-27.839 0-38.452l17.826-17.826z" fill="#8ac9fe"/><path d="m26.354 503.219c-4.023-1.266-7.806-3.493-10.996-6.682-10.621-10.621-10.614-27.839 0-38.452l17.826-17.826 17.678 17.678-17.826 17.826c-7.432 7.431-9.666 18.094-6.682 27.456z" fill="#60b7ff"/><circle cx="371.386" cy="140.509" fill="#8ac9fe" r="22.5"/><path d="m278.92 253.481-20.506-20.506c-3.124-3.124-3.124-8.19 0-11.314l50.747-50.747c3.124-3.124 8.19-3.124 11.314 0l20.506 20.506c3.124 3.124 3.124 8.19 0 11.314l-50.747 50.747c-3.124 3.124-8.19 3.124-11.314 0z" fill="#c1e9af"/><path d="m366.995 162.577c-4.214-.834-8.245-2.885-11.519-6.159-8.789-8.789-8.789-23.03 0-31.82 8.789-8.789 23.031-8.789 31.82 0 3.274 3.274 5.324 7.304 6.159 11.519-7.114-1.414-14.786.643-20.301 6.159s-7.573 13.188-6.159 20.301z" fill="#60b7ff"/><path d="m276.09 250.655-17.678-17.678c-3.125-3.125-3.118-8.195 0-11.314l50.749-50.749c3.125-3.125 8.188-3.125 11.314 0l17.678 17.678c-3.125-3.125-8.188-3.125-11.314 0l-50.749 50.749c-3.119 3.118-3.126 8.188 0 11.314z" fill="#ade194"/></g><g><path d="m486.235 25.754c-16.603-16.608-38.682-25.754-62.169-25.754s-45.566 9.146-62.168 25.754l-222.131 222.12c-11.725 11.725-19.861 26.423-23.528 42.503-10.901 47.737-34.005 90.31-66.812 123.117l-39.282 39.282c-13.515 13.526-13.515 35.536.007 49.069 6.559 6.546 15.27 10.152 24.529 10.152s17.97-3.605 24.533-10.157l17.726-17.726c.034-.033.071-.061.104-.094s.062-.07.094-.104l21.356-21.356c32.807-32.807 75.38-55.91 123.114-66.811 16.082-3.668 30.78-11.804 42.506-23.529l147.689-147.69c2.929-2.929 2.929-7.678 0-10.606-2.931-2.93-7.679-2.928-10.607 0l-100.315 100.316-103.133-103.132 157.527-157.52 103.125 103.126-32.454 32.46c-2.929 2.929-2.929 7.678.001 10.606 2.93 2.929 7.679 2.927 10.606-.001l49.68-49.688c16.607-16.603 25.754-38.682 25.754-62.169s-9.146-45.566-25.752-62.168zm-437.623 465.475c-3.726 3.72-8.673 5.768-13.931 5.768s-10.206-2.048-13.925-5.761c-7.674-7.681-7.674-20.178-.002-27.856l12.521-12.521 27.853 27.853zm241.662-166.381-30.283 30.283-55.097-55.096c-2.93-2.929-7.678-2.929-10.607 0s-2.929 7.678 0 10.606l54.928 54.927c-8.92 7.606-19.508 12.95-30.943 15.558-50.492 11.53-95.578 36.022-130.384 70.828l-16.151 16.151-27.853-27.853 16.152-16.152c34.805-34.805 59.297-79.891 70.828-130.385 2.607-11.433 7.952-22.021 15.558-30.941l23.116 23.116c1.465 1.465 3.384 2.197 5.304 2.197 1.919 0 3.839-.732 5.304-2.197 2.929-2.929 2.929-7.678 0-10.606l-23.286-23.287 30.284-30.283zm185.353-185.364-6.621 6.622-103.124-103.124 6.622-6.622c13.771-13.775 32.082-21.36 51.562-21.36s37.791 7.585 51.562 21.361c13.774 13.77 21.359 32.081 21.359 51.561s-7.584 37.791-21.36 51.562z"/><path d="m392.695 161.719c5.667-5.666 8.787-13.2 8.787-21.213 0-8.014-3.12-15.547-8.787-21.213-5.666-5.667-13.199-8.787-21.213-8.787-8.013 0-15.547 3.121-21.212 8.787-5.667 5.666-8.788 13.2-8.788 21.213s3.121 15.547 8.787 21.213 13.2 8.787 21.213 8.787c8.013-.001 15.547-3.121 21.213-8.787zm-36.213-21.213c0-4.007 1.561-7.774 4.395-10.607 2.833-2.833 6.599-4.393 10.605-4.393s7.773 1.56 10.607 4.393c2.833 2.833 4.393 6.6 4.393 10.607 0 4.006-1.56 7.773-4.393 10.606-2.834 2.833-6.601 4.393-10.607 4.393s-7.772-1.56-10.606-4.393-4.394-6.6-4.394-10.606z"/><path d="m325.874 165.608c-6.044-6.042-15.877-6.044-21.921 0l-50.747 50.747c-6.042 6.043-6.042 15.876 0 21.92l20.506 20.506h.001c3.021 3.021 6.99 4.532 10.96 4.532 3.969 0 7.938-1.511 10.961-4.532l50.746-50.747c6.043-6.043 6.043-15.876 0-21.92zm9.899 31.82-50.745 50.746c-.195.195-.513.195-.708 0l-20.506-20.505c-.195-.195-.195-.513 0-.708l50.747-50.747c.192-.194.512-.195.706 0l20.506 20.506c.195.196.195.513 0 .708z"/></g></g></svg>